<svg xmlns="http://www.w3.org/2000/svg" viewBox="0 0 500 500" width="100%" height="100%">
  <defs>
    <!-- Background Gradient: Editorial Warm Ivory / Sand -->
    <radialGradient id="ringBgGrad" cx="50%" cy="50%" r="70%">
      <stop offset="0%" stop-color="#FCFAF7" />
      <stop offset="50%" stop-color="#FAF7F2" />
      <stop offset="100%" stop-color="#ECE7DE" />
    </radialGradient>

    <!-- Sterling Silver Polished Gradients with Rich Contrast Refles -->
    <linearGradient id="silver925_primary" x1="0%" y1="0%" x2="100%" y2="100%">
      <stop offset="0%" stop-color="#FFFFFF" />
      <stop offset="15%" stop-color="#E1E4E6" />
      <stop offset="30%" stop-color="#8E9396" />
      <stop offset="42%" stop-color="#D9DCDE" />
      <stop offset="55%" stop-color="#FFFFFF" />
      <stop offset="70%" stop-color="#55585A" />
      <stop offset="85%" stop-color="#C5C8CA" />
      <stop offset="100%" stop-color="#DFE2E4" />
    </linearGradient>

    <linearGradient id="silver925_inner" x1="100%" y1="0%" x2="0%" y2="100%">
      <stop offset="0%" stop-color="#4B4E50" />
      <stop offset="25%" stop-color="#A5AAAD" />
      <stop offset="50%" stop-color="#F3F5F6" />
      <stop offset="75%" stop-color="#7B7F82" />
      <stop offset="100%" stop-color="#1D2021" />
    </linearGradient>

    <linearGradient id="silver925_highlight" x1="0%" y1="10% " x2="100%" y2="90%">
      <stop offset="0%" stop-color="#FFFFFF" stop-opacity="0.9" />
      <stop offset="30%" stop-color="#FFFFFF" stop-opacity="0.1" />
      <stop offset="70%" stop-color="#FFFFFF" stop-opacity="0" />
      <stop offset="100%" stop-color="#FFFFFF" stop-opacity="0.8" />
    </linearGradient>

    <!-- Complex realistic drop shadow filter and offsets -->
    <filter id="ringRefShadow" x="-30%" y="-30%" width="160%" height="160%">
      <feDropShadow dx="15" dy="25" stdDeviation="15" flood-color="#544B3F" flood-opacity="0.32" />
      <feDropShadow dx="5" dy="8" stdDeviation="5" flood-color="#000000" flood-opacity="0.12" />
    </filter>
  </defs>

  <!-- Editorial Studio Canvas Background -->
  <rect width="100%" height="100%" fill="url(#ringBgGrad)" />

  <!-- Main Assembly with Drop Shadow -->
  <g filter="url(#ringRefShadow)" transform="translate(0, 5)">
    <!-- Wave ring structure is represented by an organic curved path styled in high resolution -->
    <!-- Inner Band Shadow Ring (Simulating spatial depth & 3D inner wall) -->
    <path d="M 180 230 
             C 170 200, 205 160, 250 160 
             C 295 160, 330 200, 320 230
             C 300 270, 200 270, 180 230 Z" 
          fill="url(#silver925_inner)" stroke="#606466" stroke-width="0.5" />

    <!-- Organic Wave Ring Outer Front Face -->
    <!-- This path models a dynamic wave form (fluid, thick-and-thin organic flow) -->
    <path d="M 165 240 
             C 155 200, 195 165, 250 165 
             C 305 165, 345 200, 335 240
             C 325 285, 305 315, 250 325
             C 195 315, 175 285, 165 240 Z" 
          fill="url(#silver925_primary)" stroke="#BFC3C5" stroke-width="1.2" />

    <!-- Organic Wave In-Line Accent (Models physical wave crease facet) -->
    <path d="M 166 238
             C 182 220, 200 206, 222 210
             C 245 212, 258 244, 275 252
             C 292 260, 310 248, 334 238
             C 318 274, 290 304, 250 321
             C 210 304, 182 274, 166 238 Z" 
          fill="url(#silver925_inner)" opacity="0.85" />

    <!-- Highly reflective silver highlights & specular polish overlay -->
    <path d="M 165 240 
             C 155 200, 195 165, 250 165 
             C 305 165, 345 200, 335 240
             C 325 285, 305 315, 250 325
             C 195 315, 175 285, 165 240 Z" 
          fill="url(#silver925_highlight)" />

    <!-- Soft specular stars (Luxury glint points) -->
    <!-- Star Glint A -->
    <g transform="translate(195, 185)">
      <path d="M 0 -12 Q 0 0 12 0 Q 0 0 0 12 Q 0 0 -12 0 Q 0 0 0 -12 Z" fill="#FFFFFF" opacity="0.95" />
      <circle cx="0" cy="0" r="3" fill="#FFFFFF" />
    </g>
    <!-- Star Glint B -->
    <g transform="translate(305, 225) scale(0.7)">
      <path d="M 0 -12 Q 0 0 12 0 Q 0 0 0 12 Q 0 0 -12 0 Q 0 0 0 -12 Z" fill="#FFFFFF" opacity="0.85" />
      <circle cx="0" cy="0" r="3" fill="#FFFFFF" />
    </g>

    <!-- Under-reflection (gives the ring an incredible lifelike 3D metallic presence) -->
    <ellipse cx="250" cy="332" rx="42" ry="5" fill="#FFFFFF" opacity="0.3" filter="blur(2)" />
  </g>
</svg>
